PathFileType	4	(X/Y/Z)	C:/Users/opensim2020/Desktop/walking_exp_matlab/subject01_walking09_straight_04.trc																																																																																																																															
DataRate	CameraRate	NumFrames	NumMarkers	Units	OrigDataRate	OrigDataStartFrame	OrigNumFrames																																																																																																																											
100	100	5	43	mm	100	3960	292																																																																																																																											
Frame#	Time	LFHD			RFHD			LBHD			RBHD			C7			T10			CLAV			STRN			RBAK			LSHO			LUPA			LELB			LFRM			LWRA			LWRB			LFIN			RSHO			RUPA			RELB			RFRM			RWRA			RWRB			RFIN			LASI			RASI			LPSI			RPSI			LTHI			LKNE			LTIB			LANK			LHEE			LTOE			RTHI			RKNE			RTIB			RANK			RHEE			RTOE			*39			*40			*41			*42		
		X1	Y1	Z1	X2	Y2	Z2	X3	Y3	Z3	X4	Y4	Z4	X5	Y5	Z5	X6	Y6	Z6	X7	Y7	Z7	X8	Y8	Z8	X9	Y9	Z9	X10	Y10	Z10	X11	Y11	Z11	X12	Y12	Z12	X13	Y13	Z13	X14	Y14	Z14	X15	Y15	Z15	X16	Y16	Z16	X17	Y17	Z17	X18	Y18	Z18	X19	Y19	Z19	X20	Y20	Z20	X21	Y21	Z21	X22	Y22	Z22	X23	Y23	Z23	X24	Y24	Z24	X25	Y25	Z25	X26	Y26	Z26	X27	Y27	Z27	X28	Y28	Z28	X29	Y29	Z29	X30	Y30	Z30	X31	Y31	Z31	X32	Y32	Z32	X33	Y33	Z33	X34	Y34	Z34	X35	Y35	Z35	X36	Y36	Z36	X37	Y37	Z37	X38	Y38	Z38	X39	Y39	Z39	X40	Y40	Z40	X41	Y41	Z41	X42	Y42	Z42	X43	Y43	Z43
																																																																																																																																		
74	0.73	-663.98456	1668.29297	-1485.45605	-647.33051	1674.4436	-1373.38928	-781.69757	1627.89526	-1474.36597	-767.30304	1633.08484	-1354.53784	-821.92657	1428.62891	-1427.23938	-846.88855	1134.15771	-1420.80566	-675.5498	1367.21082	-1430.92334	-626.28357	1214.70129	-1440.64673	-865.59003	1230.53381	-1349.49207	-743.04004	1395.36987	-1589.77466	-755.19159	1213.97095	-1679.76904	-745.43854	1061.8009	-1689.5387	-679.18512	968.20624	-1716.21692	-572.92419	879.25208	-1696.99744	-623.23761	859.76782	-1723.62805	-555.95386	810.73578	-1737.63464	-735.02911	1392.33655	-1276.59863	-794.09906	1189.18433	-1180.20898	-794.53485	1065.021	-1182.09363	-773.74506	946.94312	-1152.83472	-700.99219	825.20789	-1174.53992	-743.71625	829.13629	-1133.50562	-711.79144	747.86182	-1137.80835	-679.98798	926.888	-1539.42444	-660.06653	936.92065	-1324.41858	-859.77521	943.59821	-1470.70227	-845.80206	947.30841	-1325.96301	-758.41809	595.69879	-1587.33044	-794.2547	463.88614	-1576.35535	-921.56873	321.87732	-1586.50427	-1044.47461	135.88161	-1541.20398	-1095.31812	129.95212	-1486.32568	-933.62512	38.1618	-1544.18909	-653.34772	608.50671	-1264.31836	-613.88861	456.49686	-1295.93433	-641.14008	281.8855	-1286.19348	-644.16626	77.29242	-1333.69995	-693.3056	38.24416	-1382.06079	-504.34155	39.9608	-1338.46924	-658.14648	1708.52649	-1395.68286	-1973.09265	1023.27417	3101.92529	-2012.51038	1022.02112	3140.68433	NaN	NaN	NaN
75	0.74	-657.39081	1668.96655	-1483.22937	-640.68536	1674.94812	-1371.21045	-775.1557	1628.65857	-1472.11218	-760.68817	1633.68347	-1352.37134	-815.27148	1428.99634	-1425.38989	-839.59406	1134.49683	-1419.12756	-668.7196	1368.03662	-1428.94812	-619.09631	1215.63098	-1438.55664	-858.39758	1230.80396	-1347.59045	-736.04657	1396.04065	-1587.82007	-748.67603	1214.75085	-1678.08655	-740.44867	1062.35608	-1687.50732	-674.85687	968.25763	-1714.33545	-569.02057	878.71497	-1695.28259	-619.46265	859.51904	-1721.91492	-552.32996	809.87445	-1735.71692	-728.52386	1392.98132	-1274.65198	-787.17188	1189.77661	-1178.26819	-787.13202	1065.48767	-1180.3031	-765.78424	947.47235	-1151.12268	-692.44647	826.18781	-1172.92554	-734.97107	829.70728	-1131.96704	-702.76746	748.55005	-1136.21838	-672.10376	927.60797	-1537.13538	-652.3479	937.39813	-1322.3678	-852.01245	944.33215	-1469.04614	-838.11322	948.03888	-1324.2832	-747.60516	595.67004	-1586.59021	-781.93085	463.77927	-1576.6958	-912.27124	324.53818	-1586.64209	-1039.09192	141.16272	-1542.01257	-1089.2168	137.25479	-1486.67285	-932.87329	38.22982	-1544.0448	-649.30707	608.10394	-1263.40149	-610.19604	456.01822	-1295.45947	-638.64105	281.68222	-1286.28625	-643.83539	77.0514	-1333.8822	-693.18536	38.25856	-1382.16541	-503.80707	39.36269	-1338.94238	-651.74585	1708.77502	-1393.58374	-1973.22131	1023.4928	3101.89258	-2012.51135	1021.92029	3140.70605	NaN	NaN	NaN
76	0.75	-650.89038	1669.62463	-1481.14551	-634.05994	1675.40295	-1369.08691	-768.68079	1629.45923	-1470.02649	-754.07837	1634.224	-1350.17212	-808.57184	1429.3241	-1423.59106	-832.38873	1134.82642	-1417.32751	-661.97717	1368.73486	-1426.99658	-611.94379	1216.44116	-1436.48767	-851.23407	1231.09265	-1345.62146	-729.09552	1396.6217	-1585.9668	-742.24677	1215.44141	-1676.453	-735.50061	1062.85144	-1685.51038	-670.58685	968.23627	-1712.521	-565.33124	877.92108	-1693.49194	-615.89337	859.09039	-1719.98462	-549.08478	809.15179	-1734.0686	-721.76044	1393.5498	-1272.88757	-780.23828	1190.31982	-1176.29565	-779.62482	1065.92029	-1178.40247	-757.76715	947.99066	-1149.33228	-683.77649	827.00189	-1171.37866	-726.37042	830.40143	-1130.27551	-693.64178	749.35376	-1134.71765	-664.34955	928.38409	-1534.99805	-644.89996	937.78607	-1320.47717	-844.49951	944.95062	-1467.30554	-830.50598	948.72919	-1322.47131	-736.33716	595.61652	-1586.14685	-769.02222	463.57648	-1577.24866	-902.44897	327.69162	-1587.11902	-1033.12842	146.92996	-1542.89648	-1082.35498	145.01266	-1486.94751	-932.37567	38.32631	-1543.97827	-645.4649	607.70111	-1262.54956	-606.60693	455.2858	-1294.70251	-636.58936	281.29071	-1285.82678	-643.48047	76.96726	-1334.18262	-693.10712	38.30102	-1382.26392	-503.40607	38.92366	-1339.44287	-645.21582	1709.24109	-1391.35864	-1973.0603	1023.83679	3102.05493	-2012.54944	1022.07361	3140.70239	NaN	NaN	NaN
77	0.76	-644.30731	1670.21008	-1479.02673	-627.44092	1675.6582	-1366.95618	-762.08398	1630.1416	-1467.89832	-747.45068	1634.70337	-1348.04028	-801.87219	1429.64673	-1421.83093	-825.16876	1135.0238	-1415.40149	-655.12915	1369.36682	-1425.18274	-604.80585	1217.23804	-1434.41931	-844.15112	1231.39172	-1343.67639	-722.22357	1397.11243	-1584.15063	-736.01434	1215.97607	-1674.6449	-730.56238	1063.30688	-1683.58655	-666.42316	968.05194	-1710.56287	-561.70074	877.10388	-1691.80176	-612.53607	858.67902	-1718.48096	-545.8631	808.09192	-1732.24792	-714.9743	1394.03345	-1271.04077	-773.28424	1190.89404	-1174.26038	-772.14471	1066.35632	-1176.49951	-749.51782	948.4079	-1147.42664	-674.96228	827.90448	-1169.74646	-717.60345	831.0733	-1128.82434	-684.32922	750.2522	-1133.27698	-656.87537	929.00159	-1532.8252	-637.59961	938.00476	-1318.55957	-837.16406	945.42847	-1465.45178	-823.0838	949.40747	-1320.59094	-724.80298	595.67462	-1586.11084	-755.68597	463.43347	-1578.00122	-892.23798	331.04077	-1587.63684	-1026.42542	152.77066	-1543.6521	-1074.52515	152.8819	-1487.0636	-931.82751	38.64775	-1543.79419	-641.20374	607.44025	-1261.47961	-603.41174	454.74924	-1293.86462	-634.92596	280.74603	-1285.26331	-643.034	77.08369	-1334.5022	-693.00873	38.31034	-1382.52173	-502.91766	38.39799	-1339.63904	-638.44604	1709.68604	-1389.18286	-1973.16028	1023.49133	3101.91626	-2012.521	1021.99786	3140.78613	NaN	NaN	NaN
78	0.77	-637.72717	1670.70886	-1477.02319	-620.79346	1676.06458	-1364.96924	-755.54572	1630.75647	-1465.80981	-740.77405	1635.10315	-1346.00037	-795.19397	1429.95056	-1420.07983	-817.98004	1135.19556	-1413.46997	-648.36523	1370.0354	-1423.45667	-597.79254	1217.81335	-1432.53198	-837.12195	1231.65491	-1341.63123	-715.3988	1397.47461	-1582.39624	-729.95947	1216.31335	-1672.77209	-725.54041	1063.68103	-1681.69873	-662.27734	967.89014	-1708.77856	-558.23846	876.13208	-1690.13867	-609.23267	857.99469	-1716.53699	-543.03223	807.10162	-1730.66296	-708.2915	1394.53284	-1269.18481	-765.9306	1191.33484	-1172.30615	-764.62134	1066.73645	-1174.43152	-741.36688	948.88324	-1145.54504	-666.52167	828.79486	-1168.27637	-708.57629	831.62219	-1126.87012	-674.86865	751.01782	-1131.61426	-649.66705	929.53979	-1530.81628	-630.50616	937.9494	-1316.70105	-830.09589	945.74036	-1463.61072	-815.75751	949.89124	-1318.70715	-712.94983	595.47736	-1585.88562	-741.96869	463.2435	-1578.78467	-881.15997	334.40085	-1588.02454	-1018.82013	158.49265	-1544.32996	-1066.06287	160.94583	-1487.34033	-932.27173	39.10849	-1544.06958	-636.76154	607.21088	-1260.37109	-600.29181	454.23553	-1292.67908	-633.66199	280.71933	-1284.63501	-642.89929	77.1057	-1334.70337	-692.55542	39.14901	-1382.40015	-502.54727	38.18673	-1339.8689	-631.7337	1710.03247	-1387.1106	-1973.03967	1023.74139	3102.04639	-2012.54346	1022.1394	3140.81299	NaN	NaN	NaN
